# xmcd
#
# Track frame offsets:
#	150
#	15853
#	29318
#	44975
#	66008
#	83318
#	92803
#	110400
#	135038
#	146488
#	160335
#	179195
#	192755
#	207075
#	224973
#	243643
#	263080
#	277695
#	298286
#
# Disc length: 4160 seconds
#
# Revision: 0
# Processed by: cddbd v1.5.1PL0 Copyright (c) Steve Scherf et al.
# Submitted via: dBpowerAMP V4.0
#
DISCID=17103e13
DTITLE=Fleetwood Mac - The Original Fleetwood Mac [320]
DYEAR=1971
DGENRE=
TTITLE0=Drifting
TTITLE1=Leaving Town Blues
TTITLE2=Watch Out
TTITLE3=A Fool No More
TTITLE4=Mean Old Fireman
TTITLE5=Can't Afford To Do It
TTITLE6=Fleetwood Mac
TTITLE7=Worried Dream
TTITLE8=Love That Woman
TTITLE9=Allow Me One More Show
TTITLE10=First Train Home
TTITLE11=Rambling Pony No. 2
TTITLE12=Watch Out (Take1)
TTITLE13=Something Inside Of Me (Take 1) - (''Then Play On'' Outtake Originally Recorded '68 - Master 1999)
TTITLE14=Something Inside Of Me (Take 2)
TTITLE15=Something Inside Of Me (Take 3)
TTITLE16=One Sunny Day (''Then Play On'' Outtake Originally Recorded '68 - Master 1999)
TTITLE17=Without You (''Then Play On'' Outtake Originally Recorded '68 - Master 1999)
TTITLE18=oming Your Way (Going My Way) - (''Then Play On'' Outtake Originally Recorded '68 - Master 1999)
EXTD=
EXTT0=
EXTT1=
EXTT2=
EXTT3=
EXTT4=
EXTT5=
EXTT6=
EXTT7=
EXTT8=
EXTT9=
EXTT10=
EXTT11=
EXTT12=
EXTT13=
EXTT14=
EXTT15=
EXTT16=
EXTT17=
EXTT18=
PLAYORDER=
